<svg width="262" height="97" viewBox="0 0 262 97" fill="none" xmlns="http://www.w3.org/2000/svg">
    <path d="M224.124 5.06901C224.769 3.32777 227.231 3.32778 227.876 5.06901L229.462 9.35625C229.665 9.90369 230.096 10.3353 230.644 10.5379L234.931 12.1243C236.672 12.7686 236.672 15.2314 234.931 15.8757L230.644 17.4621C230.096 17.6647 229.665 18.0963 229.462 18.6438L227.876 22.931C227.231 24.6722 224.769 24.6722 224.124 22.931L222.538 18.6438C222.335 18.0963 221.904 17.6647 221.356 17.4621L217.069 15.8757C215.328 15.2314 215.328 12.7686 217.069 12.1243L221.356 10.5379C221.904 10.3353 222.335 9.90368 222.538 9.35625L224.124 5.06901Z" fill="#FFC327"/>
    <path d="M215.124 84.069C215.769 82.3278 218.231 82.3278 218.876 84.069L219.112 84.7067C219.314 85.2541 219.746 85.6858 220.293 85.8883L220.931 86.1243C222.672 86.7686 222.672 89.2314 220.931 89.8757L220.293 90.1117C219.746 90.3142 219.314 90.7459 219.112 91.2933L218.876 91.931C218.231 93.6722 215.769 93.6722 215.124 91.931L214.888 91.2933C214.686 90.7459 214.254 90.3142 213.707 90.1117L213.069 89.8757C211.328 89.2314 211.328 86.7686 213.069 86.1243L213.707 85.8883C214.254 85.6858 214.686 85.2541 214.888 84.7067L215.124 84.069Z" fill="#4958B3"/>
    <path d="M43.1243 75.069C43.7686 73.3278 46.2314 73.3278 46.8757 75.069L47.1117 75.7067C47.3142 76.2541 47.7459 76.6858 48.2933 76.8883L48.931 77.1243C50.6722 77.7686 50.6722 80.2314 48.931 80.8757L48.2933 81.1117C47.7459 81.3142 47.3142 81.7459 47.1117 82.2933L46.8757 82.931C46.2314 84.6722 43.7686 84.6722 43.1243 82.931L42.8883 82.2933C42.6858 81.7459 42.2541 81.3142 41.7067 81.1117L41.069 80.8757C39.3278 80.2314 39.3278 77.7686 41.069 77.1243L41.7067 76.8883C42.2541 76.6858 42.6858 76.2541 42.8883 75.7067L43.1243 75.069Z" fill="#556CFB"/>
    <circle cx="259" cy="51" r="3" fill="#F0582E"/>
    <circle cx="3" cy="45" r="3" fill="#6CBA7E"/>
    <circle cx="42" cy="20" r="4" fill="#FFC327"/>
</svg>
