<svg width="247" height="62" viewBox="0 0 247 62" fill="none" xmlns="http://www.w3.org/2000/svg">
<path d="M93.816 23.02C93.4613 22.572 92.976 22.2453 92.36 22.04C91.7627 21.816 91.1933 21.704 90.652 21.704C90.3347 21.704 90.008 21.7413 89.672 21.816C89.336 21.8907 89.0186 22.012 88.72 22.18C88.4213 22.3293 88.1786 22.5347 87.992 22.796C87.8053 23.0573 87.712 23.3747 87.712 23.748C87.712 24.3453 87.936 24.8027 88.384 25.12C88.832 25.4373 89.392 25.708 90.064 25.932C90.7546 26.156 91.492 26.38 92.276 26.604C93.06 26.828 93.788 27.1453 94.46 27.556C95.1507 27.9667 95.72 28.5173 96.168 29.208C96.616 29.8987 96.84 30.8227 96.84 31.98C96.84 33.0813 96.6347 34.0427 96.224 34.864C95.8133 35.6853 95.2533 36.3667 94.544 36.908C93.8533 37.4493 93.0413 37.8507 92.108 38.112C91.1933 38.3733 90.2226 38.504 89.196 38.504C87.908 38.504 86.7133 38.308 85.612 37.916C84.5106 37.524 83.484 36.8893 82.532 36.012L85.64 32.596C86.088 33.1933 86.648 33.66 87.32 33.996C88.0106 34.3133 88.72 34.472 89.448 34.472C89.8026 34.472 90.1573 34.4347 90.512 34.36C90.8853 34.2667 91.212 34.136 91.492 33.968C91.7907 33.8 92.024 33.5853 92.192 33.324C92.3786 33.0627 92.472 32.7547 92.472 32.4C92.472 31.8027 92.2386 31.336 91.772 31C91.324 30.6453 90.7546 30.3467 90.064 30.104C89.3733 29.8613 88.6266 29.6187 87.824 29.376C87.0213 29.1333 86.2746 28.8067 85.584 28.396C84.8933 27.9853 84.3146 27.444 83.848 26.772C83.4 26.1 83.176 25.2133 83.176 24.112C83.176 23.048 83.3813 22.1147 83.792 21.312C84.2213 20.5093 84.7813 19.8373 85.472 19.296C86.1813 18.7547 86.9933 18.3533 87.908 18.092C88.8226 17.812 89.7653 17.672 90.736 17.672C91.856 17.672 92.9387 17.8307 93.984 18.148C95.0293 18.4653 95.972 18.9973 96.812 19.744L93.816 23.02Z" fill="#0D155B"/>
<path d="M99.5621 24.392H103.594V26.24H103.65C103.781 25.9787 103.967 25.7173 104.21 25.456C104.453 25.1947 104.742 24.9613 105.078 24.756C105.414 24.5507 105.797 24.3827 106.226 24.252C106.655 24.1213 107.122 24.056 107.626 24.056C108.578 24.056 109.418 24.252 110.146 24.644C110.893 25.036 111.453 25.652 111.826 26.492C112.311 25.6147 112.899 24.9893 113.59 24.616C114.281 24.2427 115.13 24.056 116.138 24.056C117.053 24.056 117.818 24.2147 118.434 24.532C119.069 24.8307 119.563 25.2507 119.918 25.792C120.291 26.3147 120.553 26.94 120.702 27.668C120.87 28.3773 120.954 29.1427 120.954 29.964V38H116.754V30.076C116.754 29.4413 116.614 28.9 116.334 28.452C116.073 27.9853 115.597 27.752 114.906 27.752C114.421 27.752 114.01 27.836 113.674 28.004C113.357 28.1533 113.095 28.368 112.89 28.648C112.703 28.928 112.563 29.2547 112.47 29.628C112.395 30.0013 112.358 30.3933 112.358 30.804V38H108.158V30.804C108.158 30.5613 108.149 30.2627 108.13 29.908C108.111 29.5533 108.046 29.2173 107.934 28.9C107.822 28.5827 107.635 28.312 107.374 28.088C107.131 27.864 106.767 27.752 106.282 27.752C105.741 27.752 105.302 27.8547 104.966 28.06C104.63 28.2467 104.369 28.508 104.182 28.844C104.014 29.1613 103.902 29.5253 103.846 29.936C103.79 30.3467 103.762 30.776 103.762 31.224V38H99.5621V24.392Z" fill="#0D155B"/>
<path d="M132.465 36.292H132.409C131.943 37.02 131.317 37.5427 130.533 37.86C129.768 38.1773 128.956 38.336 128.097 38.336C127.463 38.336 126.847 38.2427 126.249 38.056C125.671 37.888 125.157 37.6267 124.709 37.272C124.261 36.9173 123.907 36.4787 123.645 35.956C123.384 35.4333 123.253 34.8267 123.253 34.136C123.253 33.352 123.393 32.6893 123.673 32.148C123.972 31.6067 124.364 31.1587 124.849 30.804C125.353 30.4493 125.923 30.1787 126.557 29.992C127.192 29.7867 127.845 29.6373 128.517 29.544C129.208 29.4507 129.889 29.3947 130.561 29.376C131.252 29.3573 131.887 29.348 132.465 29.348C132.465 28.6013 132.195 28.0133 131.653 27.584C131.131 27.136 130.505 26.912 129.777 26.912C129.087 26.912 128.452 27.0613 127.873 27.36C127.313 27.64 126.809 28.032 126.361 28.536L124.121 26.24C124.905 25.512 125.82 24.9707 126.865 24.616C127.911 24.2427 128.993 24.056 130.113 24.056C131.345 24.056 132.353 24.2147 133.137 24.532C133.94 24.8307 134.575 25.2787 135.041 25.876C135.527 26.4733 135.863 27.2107 136.049 28.088C136.236 28.9467 136.329 29.9453 136.329 31.084V38H132.465V36.292ZM131.429 32.036C131.112 32.036 130.711 32.0547 130.225 32.092C129.759 32.1107 129.301 32.1853 128.853 32.316C128.424 32.4467 128.051 32.6427 127.733 32.904C127.435 33.1653 127.285 33.5293 127.285 33.996C127.285 34.5 127.5 34.8733 127.929 35.116C128.359 35.3587 128.807 35.48 129.273 35.48C129.684 35.48 130.076 35.424 130.449 35.312C130.841 35.2 131.187 35.0413 131.485 34.836C131.784 34.6307 132.017 34.3693 132.185 34.052C132.372 33.7347 132.465 33.3613 132.465 32.932V32.036H131.429Z" fill="#0D155B"/>
<path d="M138.964 24.392H143.164V26.576H143.22C143.668 25.736 144.2 25.1107 144.816 24.7C145.432 24.2707 146.207 24.056 147.14 24.056C147.383 24.056 147.626 24.0653 147.868 24.084C148.111 24.1027 148.335 24.14 148.54 24.196V28.032C148.242 27.9387 147.943 27.8733 147.644 27.836C147.364 27.78 147.066 27.752 146.748 27.752C145.946 27.752 145.311 27.864 144.844 28.088C144.378 28.312 144.014 28.6293 143.752 29.04C143.51 29.432 143.351 29.908 143.276 30.468C143.202 31.028 143.164 31.644 143.164 32.316V38H138.964V24.392Z" fill="#0D155B"/>
<path d="M159.635 27.752H155.939V32.288C155.939 32.6613 155.957 33.0067 155.995 33.324C156.032 33.6227 156.116 33.884 156.247 34.108C156.377 34.332 156.573 34.5093 156.835 34.64C157.115 34.752 157.479 34.808 157.927 34.808C158.151 34.808 158.44 34.7893 158.795 34.752C159.168 34.696 159.448 34.584 159.635 34.416V37.916C159.168 38.084 158.683 38.196 158.179 38.252C157.675 38.308 157.18 38.336 156.695 38.336C155.985 38.336 155.332 38.2613 154.735 38.112C154.137 37.9627 153.615 37.7293 153.167 37.412C152.719 37.076 152.364 36.6467 152.103 36.124C151.86 35.6013 151.739 34.9667 151.739 34.22V27.752H149.051V24.392H151.739V20.36H155.939V24.392H159.635V27.752Z" fill="#0D155B"/>
<path d="M170.586 18.176H174.954V25.568H183.438V18.176H187.806V38H183.438V29.432H174.954V38H170.586V18.176Z" fill="#0D155B"/>
<path d="M190.796 31.196C190.796 30.1133 190.992 29.1333 191.384 28.256C191.776 27.3787 192.308 26.632 192.98 26.016C193.671 25.3813 194.474 24.896 195.388 24.56C196.322 24.224 197.311 24.056 198.356 24.056C199.402 24.056 200.382 24.224 201.296 24.56C202.23 24.896 203.032 25.3813 203.704 26.016C204.395 26.632 204.936 27.3787 205.328 28.256C205.72 29.1333 205.916 30.1133 205.916 31.196C205.916 32.2787 205.72 33.2587 205.328 34.136C204.936 35.0133 204.395 35.7693 203.704 36.404C203.032 37.02 202.23 37.496 201.296 37.832C200.382 38.168 199.402 38.336 198.356 38.336C197.311 38.336 196.322 38.168 195.388 37.832C194.474 37.496 193.671 37.02 192.98 36.404C192.308 35.7693 191.776 35.0133 191.384 34.136C190.992 33.2587 190.796 32.2787 190.796 31.196ZM194.996 31.196C194.996 32.2227 195.286 33.0533 195.864 33.688C196.462 34.3227 197.292 34.64 198.356 34.64C199.42 34.64 200.242 34.3227 200.82 33.688C201.418 33.0533 201.716 32.2227 201.716 31.196C201.716 30.1693 201.418 29.3387 200.82 28.704C200.242 28.0693 199.42 27.752 198.356 27.752C197.292 27.752 196.462 28.0693 195.864 28.704C195.286 29.3387 194.996 30.1693 194.996 31.196Z" fill="#0D155B"/>
<path d="M208.39 24.392H212.422V26.24H212.478C212.609 25.9787 212.796 25.7173 213.038 25.456C213.281 25.1947 213.57 24.9613 213.906 24.756C214.242 24.5507 214.625 24.3827 215.054 24.252C215.484 24.1213 215.95 24.056 216.454 24.056C217.406 24.056 218.246 24.252 218.974 24.644C219.721 25.036 220.281 25.652 220.654 26.492C221.14 25.6147 221.728 24.9893 222.418 24.616C223.109 24.2427 223.958 24.056 224.966 24.056C225.881 24.056 226.646 24.2147 227.262 24.532C227.897 24.8307 228.392 25.2507 228.746 25.792C229.12 26.3147 229.381 26.94 229.53 27.668C229.698 28.3773 229.782 29.1427 229.782 29.964V38H225.582V30.076C225.582 29.4413 225.442 28.9 225.162 28.452C224.901 27.9853 224.425 27.752 223.734 27.752C223.249 27.752 222.838 27.836 222.502 28.004C222.185 28.1533 221.924 28.368 221.718 28.648C221.532 28.928 221.392 29.2547 221.298 29.628C221.224 30.0013 221.186 30.3933 221.186 30.804V38H216.986V30.804C216.986 30.5613 216.977 30.2627 216.958 29.908C216.94 29.5533 216.874 29.2173 216.762 28.9C216.65 28.5827 216.464 28.312 216.202 28.088C215.96 27.864 215.596 27.752 215.11 27.752C214.569 27.752 214.13 27.8547 213.794 28.06C213.458 28.2467 213.197 28.508 213.01 28.844C212.842 29.1613 212.73 29.5253 212.674 29.936C212.618 30.3467 212.59 30.776 212.59 31.224V38H208.39V24.392Z" fill="#0D155B"/>
<path d="M245.634 35.648C244.962 36.5067 244.112 37.1693 243.086 37.636C242.059 38.1027 240.995 38.336 239.894 38.336C238.848 38.336 237.859 38.168 236.926 37.832C236.011 37.496 235.208 37.02 234.518 36.404C233.846 35.7693 233.314 35.0133 232.922 34.136C232.53 33.2587 232.334 32.2787 232.334 31.196C232.334 30.1133 232.53 29.1333 232.922 28.256C233.314 27.3787 233.846 26.632 234.518 26.016C235.208 25.3813 236.011 24.896 236.926 24.56C237.859 24.224 238.848 24.056 239.894 24.056C240.864 24.056 241.742 24.224 242.526 24.56C243.328 24.896 244 25.3813 244.542 26.016C245.102 26.632 245.531 27.3787 245.83 28.256C246.128 29.1333 246.278 30.1133 246.278 31.196V32.512H236.534C236.702 33.3147 237.066 33.9587 237.626 34.444C238.186 34.9107 238.876 35.144 239.698 35.144C240.388 35.144 240.967 34.9947 241.434 34.696C241.919 34.3787 242.339 33.9773 242.694 33.492L245.634 35.648ZM242.078 29.656C242.096 28.9467 241.863 28.34 241.378 27.836C240.892 27.332 240.267 27.08 239.502 27.08C239.035 27.08 238.624 27.1547 238.27 27.304C237.915 27.4533 237.607 27.6493 237.346 27.892C237.103 28.116 236.907 28.3867 236.758 28.704C236.627 29.0027 236.552 29.32 236.534 29.656H242.078Z" fill="#0D155B"/>
<rect width="62" height="62" rx="17" fill="#FFF7EC"/>
<path d="M16 38.5846L31.8523 14V24.1128H46L30.3182 48V38.5846H16Z" fill="url(#paint0_linear)"/>
<defs>
<linearGradient id="paint0_linear" x1="21.8333" y1="14" x2="37.3339" y2="47.7702" gradientUnits="userSpaceOnUse">
<stop stop-color="#F0582E"/>
<stop offset="1" stop-color="#FFB29D"/>
</linearGradient>
</defs>
</svg>
